<svg data-export-view-box="-8 -7 66 99" viewBox="-8 -7 96 99" class="floor-plan floor-plan--select " role="img" aria-label="Architectural floor plan for Sukoon House — Family Retreat" xmlns="http://www.w3.org/2000/svg" width="1200" height="1238"><rect x="-8" y="-7" width="96" height="99" fill="#f4f2ed"/><style>
    .room-area,.room-size{display:block}text{font-family:Arial,sans-serif;fill:#27332c}.room-name{font-size:1.05px;font-weight:700;letter-spacing:.03em}.room-area,.room-size{font-size:.7px}.plot-note,.setback-label{font-size:.65px;letter-spacing:.15em}.plot-dimensions,.selection-dimension{stroke:#5d665f;stroke-width:.08;fill:none}.plot-dimensions text,.selection-dimension-text,.measurement-text{font-size:.72px;fill:#4d5750;stroke:none}.empty-title{font-size:1.2px;font-weight:650}.empty-subtitle{font-size:.75px}.stair rect,.stair line{fill:none;stroke:#45534b;stroke-width:.08}.stair-label{font-size:.55px;font-weight:700}.selection-footer{font-size:.68px;letter-spacing:.12em}.north-arrow text{font-size:.8px;font-weight:700}.stair polygon,.stair rect,.stair line,.stair polyline{fill:#aeb5ae33;stroke:#45534b;stroke-width:.08}.stair .stair-access-zone{fill:#d37f5212;stroke:#b56d47;stroke-dasharray:.3 .22}.stair .stair-landing{fill:#45534b2e}.stair-flight.is-beyond-cut{opacity:.34;stroke-dasharray:.24 .18}.stair .stair-cut-line line{stroke:#29352e;stroke-width:.2}.stair-arrow{stroke-width:.14}.stair.is-upper-plan .stair-footprint{stroke-dasharray:.45 .3}</style><metadata>{"application":"ArchMorph","projectId":"project-e1983050","projectName":"Sukoon House — Family Retreat","version":157,"floorId":"floor-ground","exportedAt":"2026-10-10T19:09:19.311Z","units":"feet","drawingStatus":"Concept design"}</metadata><defs><pattern id="minor-grid" width="1" height="1" patternUnits="userSpaceOnUse"><path d="M 1 0 L 0 0 0 1" fill="none" stroke="#b7bbb8" stroke-opacity="0.18" stroke-width="0.04"/></pattern><pattern id="major-grid" width="5" height="5" patternUnits="userSpaceOnUse"><rect width="5" height="5" fill="url(#minor-grid)"/><path d="M 5 0 L 0 0 0 5" fill="none" stroke="#808781" stroke-opacity="0.25" stroke-width="0.07"/></pattern><filter id="room-shadow" x="-20%" y="-20%" width="140%" height="140%"><feDropShadow dx="0" dy="0.3" stdDeviation="0.35" flood-color="#1e2722" flood-opacity="0.16"/></filter><filter id="focus-glow" filterUnits="userSpaceOnUse" x="-8" y="-8" width="66" height="96"><feDropShadow dx="0" dy="0" stdDeviation="0.55" flood-color="#d35f35" flood-opacity="0.9"/></filter></defs><rect x="-8" y="-7" width="66" height="99" fill="#f4f2ed"/><rect x="0" y="0" width="50" height="80" fill="url(#major-grid)" stroke="#28322c" stroke-width="0.22" vector-effect="non-scaling-stroke"/><g class="street-marking" pointer-events="none"><line x1="0" y1="-2.7" x2="50" y2="-2.7" stroke="#929792" stroke-width="0.12" stroke-dasharray="1 0.8"/><text x="25" y="-3.7" text-anchor="middle" class="plot-note">FRONT / ACCESS STREET</text></g><g class="setbacks" pointer-events="none"><rect x="5" y="12" width="40" height="60" fill="#708a7710" stroke="#7b8d80" stroke-width="0.12" stroke-dasharray="0.6 0.45"/><text x="5.6" y="13.1" class="setback-label">BUILDABLE ENVELOPE</text></g><g class="site-boundary" pointer-events="none" fill="none" stroke="#665d53" stroke-width="0.4"><line x1="0" y1="0" x2="0" y2="80"/><line x1="50" y1="0" x2="50" y2="80"/><line x1="0" y1="80" x2="50" y2="80"/><line x1="0" y1="0" x2="19" y2="0"/><line x1="31" y1="0" x2="50" y2="0"/><line x1="19" y1="-0.3" x2="31" y2="-0.3" stroke="#47544c" stroke-width="0.16" stroke-dasharray="0.35 0.22"/></g><g class="plot-dimensions" pointer-events="none"><line x1="0" y1="82.5" x2="50" y2="82.5"/><line x1="0" y1="81.7" x2="0" y2="83.2"/><line x1="50" y1="81.7" x2="50" y2="83.2"/><text x="25" y="84.1" text-anchor="middle">50 ft</text><line x1="52.5" y1="0" x2="52.5" y2="80"/><line x1="51.7" y1="0" x2="53.2" y2="0"/><line x1="51.7" y1="80" x2="53.2" y2="80"/><text x="54" y="40" text-anchor="middle" transform="rotate(90 54 40)">80 ft</text></g><g class="north-arrow" transform="translate(55.3 5) rotate(0)" pointer-events="none"><text x="0" y="-2.1" text-anchor="middle">N</text><path d="M0,-1.5 L-0.75,1.5 L0,0.95 L0.75,1.5 Z" fill="#25322b"/></g><g data-room-id="room-927a4c38" class="room-group "><title>Guest Lounge · 224 sq ft · 14 × 16 ft</title><polygon points="6,14 20,14 20,30 6,30" fill="#e8b39c" fill-opacity="0.72" stroke="#35423a" stroke-width="0.08" vector-effect="non-scaling-stroke"/><g pointer-events="none" class="room-label"><text x="13" y="21.65" text-anchor="middle" class="room-name ">1</text><text x="13" y="23.05" text-anchor="middle" class="room-area">224 sq ft</text><text x="13" y="29.35" text-anchor="middle" class="room-size">14' × 16'</text></g></g><g data-room-id="room-13e2bc6b" class="room-group "><title>Entrance Hall · 160 sq ft · 10 × 16 ft</title><polygon points="20,14 30,14 30,30 20,30" fill="#c7b7ae" fill-opacity="0.72" stroke="#35423a" stroke-width="0.08" vector-effect="non-scaling-stroke"/><g pointer-events="none" class="room-label"><text x="25" y="21.65" text-anchor="middle" class="room-name ">2</text><text x="25" y="23.05" text-anchor="middle" class="room-area">160 sq ft</text><text x="25" y="29.35" text-anchor="middle" class="room-size">10' × 16'</text></g></g><g data-room-id="room-f6c50415" class="room-group "><title>Courtyard Gallery · 40 sq ft · 10 × 4 ft</title><polygon points="20,30 30,30 30,34 20,34" fill="#c7b7ae" fill-opacity="0.72" stroke="#35423a" stroke-width="0.08" vector-effect="non-scaling-stroke"/><g pointer-events="none" class="room-label"><text x="25" y="32.3" text-anchor="middle" class="room-name is-compact">3</text></g></g><g data-room-id="room-0c167008" class="room-group "><title>Family Dining · 224 sq ft · 14 × 16 ft</title><polygon points="6,30 20,30 20,46 6,46" fill="#d9b8a3" fill-opacity="0.72" stroke="#35423a" stroke-width="0.08" vector-effect="non-scaling-stroke"/><g pointer-events="none" class="room-label"><text x="13" y="37.65" text-anchor="middle" class="room-name ">4</text><text x="13" y="39.05" text-anchor="middle" class="room-area">224 sq ft</text><text x="13" y="45.35" text-anchor="middle" class="room-size">14' × 16'</text></g></g><g data-room-id="room-9630dc15" class="room-group "><title>Stair Hall · 224 sq ft · 14 × 16 ft</title><polygon points="30,30 44,30 44,46 30,46" fill="#c7b7ae" fill-opacity="0.72" stroke="#35423a" stroke-width="0.08" vector-effect="non-scaling-stroke"/><g pointer-events="none" class="room-label"><text x="37" y="37.65" text-anchor="middle" class="room-name ">5</text><text x="37" y="39.05" text-anchor="middle" class="room-area">224 sq ft</text><text x="37" y="45.35" text-anchor="middle" class="room-size">14' × 16'</text></g></g><g data-room-id="room-5bb8b5f8" class="room-group "><title>Open Sky Courtyard · 120 sq ft · 10 × 12 ft</title><polygon points="20,34 30,34 30,46 20,46" fill="#b9cba7" fill-opacity="0.34" stroke="#35423a" stroke-width="0.08" stroke-dasharray="0.7 0.4" vector-effect="non-scaling-stroke"/><g pointer-events="none" class="room-label"><text x="25" y="40.3" text-anchor="middle" class="room-name is-compact">6</text></g></g><g data-room-id="room-dc79954b" class="room-group "><title>Family Kitchen · 224 sq ft · 14 × 16 ft</title><polygon points="6,46 20,46 20,62 6,62" fill="#d8d2a7" fill-opacity="0.72" stroke="#35423a" stroke-width="0.08" vector-effect="non-scaling-stroke"/><g pointer-events="none" class="room-label"><text x="13" y="53.65" text-anchor="middle" class="room-name ">7</text><text x="13" y="55.05" text-anchor="middle" class="room-area">224 sq ft</text><text x="13" y="61.35" text-anchor="middle" class="room-size">14' × 16'</text></g></g><g data-room-id="room-e62b39ee" class="room-group "><title>Family Living · 384 sq ft · 24 × 16 ft</title><polygon points="20,46 44,46 44,62 20,62" fill="#e8b39c" fill-opacity="0.72" stroke="#35423a" stroke-width="0.08" vector-effect="non-scaling-stroke"/><g pointer-events="none" class="room-label"><text x="32" y="53.65" text-anchor="middle" class="room-name ">8</text><text x="32" y="55.05" text-anchor="middle" class="room-area">384 sq ft</text><text x="32" y="61.35" text-anchor="middle" class="room-size">24' × 16'</text></g></g><g data-room-id="room-65196103" class="room-group "><title>Rear Hall · 32 sq ft · 4 × 8 ft</title><polygon points="20,62 24,62 24,70 20,70" fill="#c7b7ae" fill-opacity="0.72" stroke="#35423a" stroke-width="0.08" vector-effect="non-scaling-stroke"/><g pointer-events="none" class="room-label"><text x="22" y="66.3" text-anchor="middle" class="room-name is-compact">9</text></g></g><g data-room-id="room-1fe79cec" class="room-group "><title>Guest Bathroom · 48 sq ft · 6 × 8 ft</title><polygon points="24,62 30,62 30,70 24,70" fill="#a9bfd2" fill-opacity="0.72" stroke="#35423a" stroke-width="0.08" vector-effect="non-scaling-stroke"/><g pointer-events="none" class="room-label"><text x="27" y="66.3" text-anchor="middle" class="room-name is-compact">10</text></g></g><g data-room-id="room-5789856b" class="room-group "><title>Garden Study · 112 sq ft · 14 × 8 ft</title><polygon points="30,62 44,62 44,70 30,70" fill="#b8b0cf" fill-opacity="0.72" stroke="#35423a" stroke-width="0.08" vector-effect="non-scaling-stroke"/><g pointer-events="none" class="room-label"><text x="37" y="65.65" text-anchor="middle" class="room-name ">11</text><text x="37" y="67.05" text-anchor="middle" class="room-area">112 sq ft</text><text x="37" y="69.35" text-anchor="middle" class="room-size">14' × 8'</text></g></g><g data-room-id="room-8fdb0ebf" class="room-group "><title>Parents Suite · 154 sq ft · 14 × 11 ft</title><polygon points="30,14 44,14 44,25 30,25" fill="#a9c7c2" fill-opacity="0.72" stroke="#35423a" stroke-width="0.08" vector-effect="non-scaling-stroke"/><g pointer-events="none" class="room-label"><text x="37" y="19.15" text-anchor="middle" class="room-name ">12</text><text x="37" y="20.55" text-anchor="middle" class="room-area">154 sq ft</text><text x="37" y="24.35" text-anchor="middle" class="room-size">14' × 11'</text></g></g><g data-room-id="room-d9b2ed29" class="room-group "><title>Parents Ensuite · 70 sq ft · 14 × 5 ft</title><polygon points="30,25 44,25 44,30 30,30" fill="#a9bfd2" fill-opacity="0.72" stroke="#35423a" stroke-width="0.08" vector-effect="non-scaling-stroke"/><g pointer-events="none" class="room-label"><text x="37" y="27.8" text-anchor="middle" class="room-name is-compact">13</text></g></g><g data-room-id="room-44879995" class="room-group "><title>Pantry · 64 sq ft · 8 × 8 ft</title><polygon points="6,62 14,62 14,70 6,70" fill="#c9b99e" fill-opacity="0.72" stroke="#35423a" stroke-width="0.08" vector-effect="non-scaling-stroke"/><g pointer-events="none" class="room-label"><text x="10" y="65.65" text-anchor="middle" class="room-name ">14</text><text x="10" y="67.05" text-anchor="middle" class="room-area">64 sq ft</text></g></g><g data-room-id="room-134bf784" class="room-group "><title>Laundry · 48 sq ft · 6 × 8 ft</title><polygon points="14,62 20,62 20,70 14,70" fill="#c9b99e" fill-opacity="0.72" stroke="#35423a" stroke-width="0.08" vector-effect="non-scaling-stroke"/><g pointer-events="none" class="room-label"><text x="17" y="66.3" text-anchor="middle" class="room-name is-compact">15</text></g></g><g class="walls"><g class="wall"><line x1="6" y1="14" x2="20" y2="14" class="wall-visible" data-drawing-stroke="#29362f" data-drawing-stroke-width="0.5" stroke="#29362f" stroke-width="0.5" stroke-linecap="square" pointer-events="none"/></g><g class="wall"><line x1="20" y1="14" x2="30" y2="14" class="wall-visible" data-drawing-stroke="#29362f" data-drawing-stroke-width="0.5" stroke="#29362f" stroke-width="0.5" stroke-linecap="square" pointer-events="none"/></g><g class="wall"><line x1="30" y1="14" x2="44" y2="14" class="wall-visible" data-drawing-stroke="#29362f" data-drawing-stroke-width="0.5" stroke="#29362f" stroke-width="0.5" stroke-linecap="square" pointer-events="none"/></g><g class="wall"><line x1="20" y1="14" x2="20" y2="30" class="wall-visible" data-drawing-stroke="#29362f" data-drawing-stroke-width="0.5" stroke="#29362f" stroke-width="0.5" stroke-linecap="square" pointer-events="none"/></g><g class="wall"><line x1="20" y1="30" x2="20" y2="34" class="wall-visible" data-drawing-stroke="#29362f" data-drawing-stroke-width="0.5" stroke="#29362f" stroke-width="0.5" stroke-linecap="square" pointer-events="none"/></g><g class="wall"><line x1="20" y1="34" x2="20" y2="46" class="wall-visible" data-drawing-stroke="#29362f" data-drawing-stroke-width="0.5" stroke="#29362f" stroke-width="0.5" stroke-linecap="square" pointer-events="none"/></g><g class="wall"><line x1="20" y1="46" x2="20" y2="62" class="wall-visible" data-drawing-stroke="#29362f" data-drawing-stroke-width="0.5" stroke="#29362f" stroke-width="0.5" stroke-linecap="square" pointer-events="none"/></g><g class="wall"><line x1="20" y1="62" x2="20" y2="70" class="wall-visible" data-drawing-stroke="#29362f" data-drawing-stroke-width="0.5" stroke="#29362f" stroke-width="0.5" stroke-linecap="square" pointer-events="none"/></g><g class="wall"><line x1="6" y1="30" x2="20" y2="30" class="wall-visible" data-drawing-stroke="#29362f" data-drawing-stroke-width="0.5" stroke="#29362f" stroke-width="0.5" stroke-linecap="square" pointer-events="none"/></g><g class="wall"><line x1="20" y1="30" x2="30" y2="30" class="wall-visible" data-drawing-stroke="#29362f" data-drawing-stroke-width="0.5" stroke="#29362f" stroke-width="0.5" stroke-linecap="square" pointer-events="none"/></g><g class="wall"><line x1="30" y1="30" x2="44" y2="30" class="wall-visible" data-drawing-stroke="#29362f" data-drawing-stroke-width="0.5" stroke="#29362f" stroke-width="0.5" stroke-linecap="square" pointer-events="none"/></g><g class="wall"><line x1="6" y1="14" x2="6" y2="30" class="wall-visible" data-drawing-stroke="#29362f" data-drawing-stroke-width="0.5" stroke="#29362f" stroke-width="0.5" stroke-linecap="square" pointer-events="none"/></g><g class="wall"><line x1="6" y1="30" x2="6" y2="46" class="wall-visible" data-drawing-stroke="#29362f" data-drawing-stroke-width="0.5" stroke="#29362f" stroke-width="0.5" stroke-linecap="square" pointer-events="none"/></g><g class="wall"><line x1="6" y1="46" x2="6" y2="62" class="wall-visible" data-drawing-stroke="#29362f" data-drawing-stroke-width="0.5" stroke="#29362f" stroke-width="0.5" stroke-linecap="square" pointer-events="none"/></g><g class="wall"><line x1="6" y1="62" x2="6" y2="70" class="wall-visible" data-drawing-stroke="#29362f" data-drawing-stroke-width="0.5" stroke="#29362f" stroke-width="0.5" stroke-linecap="square" pointer-events="none"/></g><g class="wall"><line x1="30" y1="14" x2="30" y2="25" class="wall-visible" data-drawing-stroke="#29362f" data-drawing-stroke-width="0.5" stroke="#29362f" stroke-width="0.5" stroke-linecap="square" pointer-events="none"/></g><g class="wall"><line x1="30" y1="25" x2="30" y2="30" class="wall-visible" data-drawing-stroke="#29362f" data-drawing-stroke-width="0.5" stroke="#29362f" stroke-width="0.5" stroke-linecap="square" pointer-events="none"/></g><g class="wall"><line x1="30" y1="30" x2="30" y2="34" class="wall-visible" data-drawing-stroke="#29362f" data-drawing-stroke-width="0.5" stroke="#29362f" stroke-width="0.5" stroke-linecap="square" pointer-events="none"/></g><g class="wall"><line x1="30" y1="34" x2="30" y2="46" class="wall-visible" data-drawing-stroke="#29362f" data-drawing-stroke-width="0.5" stroke="#29362f" stroke-width="0.5" stroke-linecap="square" pointer-events="none"/></g><g class="wall"><line x1="30" y1="62" x2="30" y2="70" class="wall-visible" data-drawing-stroke="#29362f" data-drawing-stroke-width="0.5" stroke="#29362f" stroke-width="0.5" stroke-linecap="square" pointer-events="none"/></g><g class="wall"><line x1="20" y1="34" x2="30" y2="34" class="wall-visible" data-drawing-stroke="#29362f" data-drawing-stroke-width="0.5" stroke="#29362f" stroke-width="0.5" stroke-linecap="square" pointer-events="none"/></g><g class="wall"><line x1="6" y1="46" x2="20" y2="46" class="wall-visible" data-drawing-stroke="#29362f" data-drawing-stroke-width="0.5" stroke="#29362f" stroke-width="0.5" stroke-linecap="square" pointer-events="none"/></g><g class="wall"><line x1="20" y1="46" x2="30" y2="46" class="wall-visible" data-drawing-stroke="#29362f" data-drawing-stroke-width="0.5" stroke="#29362f" stroke-width="0.5" stroke-linecap="square" pointer-events="none"/></g><g class="wall"><line x1="30" y1="46" x2="44" y2="46" class="wall-visible" data-drawing-stroke="#29362f" data-drawing-stroke-width="0.5" stroke="#29362f" stroke-width="0.5" stroke-linecap="square" pointer-events="none"/></g><g class="wall"><line x1="44" y1="14" x2="44" y2="25" class="wall-visible" data-drawing-stroke="#29362f" data-drawing-stroke-width="0.5" stroke="#29362f" stroke-width="0.5" stroke-linecap="square" pointer-events="none"/></g><g class="wall"><line x1="44" y1="25" x2="44" y2="30" class="wall-visible" data-drawing-stroke="#29362f" data-drawing-stroke-width="0.5" stroke="#29362f" stroke-width="0.5" stroke-linecap="square" pointer-events="none"/></g><g class="wall"><line x1="44" y1="30" x2="44" y2="46" class="wall-visible" data-drawing-stroke="#29362f" data-drawing-stroke-width="0.5" stroke="#29362f" stroke-width="0.5" stroke-linecap="square" pointer-events="none"/></g><g class="wall"><line x1="44" y1="46" x2="44" y2="62" class="wall-visible" data-drawing-stroke="#29362f" data-drawing-stroke-width="0.5" stroke="#29362f" stroke-width="0.5" stroke-linecap="square" pointer-events="none"/></g><g class="wall"><line x1="44" y1="62" x2="44" y2="70" class="wall-visible" data-drawing-stroke="#29362f" data-drawing-stroke-width="0.5" stroke="#29362f" stroke-width="0.5" stroke-linecap="square" pointer-events="none"/></g><g class="wall"><line x1="6" y1="62" x2="14" y2="62" class="wall-visible" data-drawing-stroke="#29362f" data-drawing-stroke-width="0.5" stroke="#29362f" stroke-width="0.5" stroke-linecap="square" pointer-events="none"/></g><g class="wall"><line x1="14" y1="62" x2="20" y2="62" class="wall-visible" data-drawing-stroke="#29362f" data-drawing-stroke-width="0.5" stroke="#29362f" stroke-width="0.5" stroke-linecap="square" pointer-events="none"/></g><g class="wall"><line x1="20" y1="62" x2="24" y2="62" class="wall-visible" data-drawing-stroke="#29362f" data-drawing-stroke-width="0.5" stroke="#29362f" stroke-width="0.5" stroke-linecap="square" pointer-events="none"/></g><g class="wall"><line x1="24" y1="62" x2="30" y2="62" class="wall-visible" data-drawing-stroke="#29362f" data-drawing-stroke-width="0.5" stroke="#29362f" stroke-width="0.5" stroke-linecap="square" pointer-events="none"/></g><g class="wall"><line x1="30" y1="62" x2="44" y2="62" class="wall-visible" data-drawing-stroke="#29362f" data-drawing-stroke-width="0.5" stroke="#29362f" stroke-width="0.5" stroke-linecap="square" pointer-events="none"/></g><g class="wall"><line x1="24" y1="62" x2="24" y2="70" class="wall-visible" data-drawing-stroke="#29362f" data-drawing-stroke-width="0.5" stroke="#29362f" stroke-width="0.5" stroke-linecap="square" pointer-events="none"/></g><g class="wall"><line x1="6" y1="70" x2="14" y2="70" class="wall-visible" data-drawing-stroke="#29362f" data-drawing-stroke-width="0.5" stroke="#29362f" stroke-width="0.5" stroke-linecap="square" pointer-events="none"/></g><g class="wall"><line x1="14" y1="70" x2="20" y2="70" class="wall-visible" data-drawing-stroke="#29362f" data-drawing-stroke-width="0.5" stroke="#29362f" stroke-width="0.5" stroke-linecap="square" pointer-events="none"/></g><g class="wall"><line x1="20" y1="70" x2="24" y2="70" class="wall-visible" data-drawing-stroke="#29362f" data-drawing-stroke-width="0.5" stroke="#29362f" stroke-width="0.5" stroke-linecap="square" pointer-events="none"/></g><g class="wall"><line x1="24" y1="70" x2="30" y2="70" class="wall-visible" data-drawing-stroke="#29362f" data-drawing-stroke-width="0.5" stroke="#29362f" stroke-width="0.5" stroke-linecap="square" pointer-events="none"/></g><g class="wall"><line x1="30" y1="70" x2="44" y2="70" class="wall-visible" data-drawing-stroke="#29362f" data-drawing-stroke-width="0.5" stroke="#29362f" stroke-width="0.5" stroke-linecap="square" pointer-events="none"/></g><g class="wall"><line x1="30" y1="25" x2="44" y2="25" class="wall-visible" data-drawing-stroke="#29362f" data-drawing-stroke-width="0.5" stroke="#29362f" stroke-width="0.5" stroke-linecap="square" pointer-events="none"/></g><g class="wall"><line x1="14" y1="62" x2="14" y2="70" class="wall-visible" data-drawing-stroke="#29362f" data-drawing-stroke-width="0.5" stroke="#29362f" stroke-width="0.5" stroke-linecap="square" pointer-events="none"/></g></g><g class="facade-features"><line x1="20.5" y1="10" x2="29.5" y2="10" data-drawing-stroke="#866d55" data-drawing-stroke-width="0.25" stroke="#866d55" stroke-width="0.25" stroke-linecap="square"><title>canopy · 9 ft</title></line><line x1="4" y1="18" x2="4" y2="26" data-drawing-stroke="#866d55" data-drawing-stroke-width="0.18" stroke="#866d55" stroke-width="0.18" stroke-linecap="square"><title>sunshade · 8 ft</title></line><line x1="4" y1="34" x2="4" y2="42" data-drawing-stroke="#866d55" data-drawing-stroke-width="0.18" stroke="#866d55" stroke-width="0.18" stroke-linecap="square"><title>sunshade · 8 ft</title></line><line x1="4" y1="49" x2="4" y2="59" data-drawing-stroke="#866d55" data-drawing-stroke-width="0.18" stroke="#866d55" stroke-width="0.18" stroke-linecap="square"><title>sunshade · 10 ft</title></line><line x1="46" y1="46.5" x2="46" y2="53.5" data-drawing-stroke="#866d55" data-drawing-stroke-width="0.18" stroke="#866d55" stroke-width="0.18" stroke-linecap="square"><title>sunshade · 7 ft</title></line><line x1="46" y1="54.5" x2="46" y2="61.5" data-drawing-stroke="#866d55" data-drawing-stroke-width="0.18" stroke="#866d55" stroke-width="0.18" stroke-linecap="square"><title>sunshade · 7 ft</title></line></g><g class="balconies"/><g class="openings"><g transform="translate(25 14) rotate(0)" class="opening opening--door"><line x1="-2" y1="0" x2="2" y2="0" stroke="#f7f5f0" stroke-width="0.78"/><line x1="2" y1="0" x2="-2" y2="0" stroke="#6d5549" stroke-width="0.12"/></g><g transform="translate(20 21) rotate(90)" class="opening opening--door"><line x1="-1.75" y1="0" x2="1.75" y2="0" stroke="#f7f5f0" stroke-width="0.78"/><line x1="1.75" y1="0" x2="1.75" y2="3.5" stroke="#6d5549" stroke-width="0.12"/><path d="M -1.75 0 A 3.5 3.5 0 0 0 1.75 3.5" fill="none" stroke="#9b7a68" stroke-width="0.08" stroke-dasharray="0.28 0.18"/></g><g transform="translate(30 20) rotate(90)" class="opening opening--door"><line x1="-1.75" y1="0" x2="1.75" y2="0" stroke="#f7f5f0" stroke-width="0.78"/><line x1="-1.75" y1="0" x2="-1.75" y2="-3.5" stroke="#6d5549" stroke-width="0.12"/><path d="M 1.75 0 A 3.5 3.5 0 0 0 -1.75 -3.5" fill="none" stroke="#9b7a68" stroke-width="0.08" stroke-dasharray="0.28 0.18"/></g><g transform="translate(40 25) rotate(0)" class="opening opening--door"><line x1="-1.5" y1="0" x2="1.5" y2="0" stroke="#f7f5f0" stroke-width="0.78"/><line x1="1.5" y1="0" x2="-1.5" y2="0" stroke="#6d5549" stroke-width="0.12"/></g><g transform="translate(25 30) rotate(0)" class="opening opening--door"><line x1="-2" y1="0" x2="2" y2="0" stroke="#f7f5f0" stroke-width="0.78"/><line x1="-2" y1="0" x2="-2" y2="-4" stroke="#6d5549" stroke-width="0.12"/><path d="M 2 0 A 4 4 0 0 0 -2 -4" fill="none" stroke="#9b7a68" stroke-width="0.08" stroke-dasharray="0.28 0.18"/></g><g transform="translate(20 32) rotate(90)" class="opening opening--door"><line x1="-1.5" y1="0" x2="1.5" y2="0" stroke="#f7f5f0" stroke-width="0.78"/><line x1="1.5" y1="0" x2="1.5" y2="3" stroke="#6d5549" stroke-width="0.12"/><path d="M -1.5 0 A 3 3 0 0 0 1.5 3" fill="none" stroke="#9b7a68" stroke-width="0.08" stroke-dasharray="0.28 0.18"/></g><g transform="translate(30 32) rotate(90)" class="opening opening--door"><line x1="-1.5" y1="0" x2="1.5" y2="0" stroke="#f7f5f0" stroke-width="0.78"/><line x1="-1.5" y1="0" x2="-1.5" y2="-3" stroke="#6d5549" stroke-width="0.12"/><path d="M 1.5 0 A 3 3 0 0 0 -1.5 -3" fill="none" stroke="#9b7a68" stroke-width="0.08" stroke-dasharray="0.28 0.18"/></g><g transform="translate(25 34) rotate(0)" class="opening opening--door"><line x1="-2" y1="0" x2="2" y2="0" stroke="#f7f5f0" stroke-width="0.78"/><line x1="2" y1="0" x2="2" y2="4" stroke="#6d5549" stroke-width="0.12"/><path d="M -2 0 A 4 4 0 0 0 2 4" fill="none" stroke="#9b7a68" stroke-width="0.08" stroke-dasharray="0.28 0.18"/></g><g transform="translate(13 30) rotate(0)" class="opening opening--door"><line x1="-2" y1="0" x2="2" y2="0" stroke="#f7f5f0" stroke-width="0.78"/><line x1="-2" y1="0" x2="-2" y2="-4" stroke="#6d5549" stroke-width="0.12"/><path d="M 2 0 A 4 4 0 0 0 -2 -4" fill="none" stroke="#9b7a68" stroke-width="0.08" stroke-dasharray="0.28 0.18"/></g><g transform="translate(15 46) rotate(0)" class="opening opening--door"><line x1="-1.75" y1="0" x2="1.75" y2="0" stroke="#f7f5f0" stroke-width="0.78"/><line x1="-1.75" y1="0" x2="-1.75" y2="-3.5" stroke="#6d5549" stroke-width="0.12"/><path d="M 1.75 0 A 3.5 3.5 0 0 0 -1.75 -3.5" fill="none" stroke="#9b7a68" stroke-width="0.08" stroke-dasharray="0.28 0.18"/></g><g transform="translate(20 40) rotate(90)" class="opening opening--door"><line x1="-2" y1="0" x2="2" y2="0" stroke="#f7f5f0" stroke-width="0.78"/><line x1="-2" y1="0" x2="-2" y2="-4" stroke="#6d5549" stroke-width="0.12"/><path d="M 2 0 A 4 4 0 0 0 -2 -4" fill="none" stroke="#9b7a68" stroke-width="0.08" stroke-dasharray="0.28 0.18"/></g><g transform="translate(25 46) rotate(0)" class="opening opening--door"><line x1="-2" y1="0" x2="2" y2="0" stroke="#f7f5f0" stroke-width="0.78"/><line x1="-2" y1="0" x2="-2" y2="-4" stroke="#6d5549" stroke-width="0.12"/><path d="M 2 0 A 4 4 0 0 0 -2 -4" fill="none" stroke="#9b7a68" stroke-width="0.08" stroke-dasharray="0.28 0.18"/></g><g transform="translate(42.25 46) rotate(0)" class="opening opening--door"><line x1="-1.5" y1="0" x2="1.5" y2="0" stroke="#f7f5f0" stroke-width="0.78"/><line x1="-1.5" y1="0" x2="-1.5" y2="-3" stroke="#6d5549" stroke-width="0.12"/><path d="M 1.5 0 A 3 3 0 0 0 -1.5 -3" fill="none" stroke="#9b7a68" stroke-width="0.08" stroke-dasharray="0.28 0.18"/></g><g transform="translate(20 54) rotate(90)" class="opening opening--door"><line x1="-2" y1="0" x2="2" y2="0" stroke="#f7f5f0" stroke-width="0.78"/><line x1="-2" y1="0" x2="-2" y2="-4" stroke="#6d5549" stroke-width="0.12"/><path d="M 2 0 A 4 4 0 0 0 -2 -4" fill="none" stroke="#9b7a68" stroke-width="0.08" stroke-dasharray="0.28 0.18"/></g><g transform="translate(10 62) rotate(0)" class="opening opening--door"><line x1="-1.5" y1="0" x2="1.5" y2="0" stroke="#f7f5f0" stroke-width="0.78"/><line x1="1.5" y1="0" x2="1.5" y2="3" stroke="#6d5549" stroke-width="0.12"/><path d="M -1.5 0 A 3 3 0 0 0 1.5 3" fill="none" stroke="#9b7a68" stroke-width="0.08" stroke-dasharray="0.28 0.18"/></g><g transform="translate(17 62) rotate(0)" class="opening opening--door"><line x1="-1.5" y1="0" x2="1.5" y2="0" stroke="#f7f5f0" stroke-width="0.78"/><line x1="1.5" y1="0" x2="1.5" y2="3" stroke="#6d5549" stroke-width="0.12"/><path d="M -1.5 0 A 3 3 0 0 0 1.5 3" fill="none" stroke="#9b7a68" stroke-width="0.08" stroke-dasharray="0.28 0.18"/></g><g transform="translate(22 62) rotate(0)" class="opening opening--door"><line x1="-1.5" y1="0" x2="1.5" y2="0" stroke="#f7f5f0" stroke-width="0.78"/><line x1="-1.5" y1="0" x2="-1.5" y2="-3" stroke="#6d5549" stroke-width="0.12"/><path d="M 1.5 0 A 3 3 0 0 0 -1.5 -3" fill="none" stroke="#9b7a68" stroke-width="0.08" stroke-dasharray="0.28 0.18"/></g><g transform="translate(39 62) rotate(0)" class="opening opening--door"><line x1="-1.75" y1="0" x2="1.75" y2="0" stroke="#f7f5f0" stroke-width="0.78"/><line x1="1.75" y1="0" x2="1.75" y2="3.5" stroke="#6d5549" stroke-width="0.12"/><path d="M -1.75 0 A 3.5 3.5 0 0 0 1.75 3.5" fill="none" stroke="#9b7a68" stroke-width="0.08" stroke-dasharray="0.28 0.18"/></g><g transform="translate(24 66) rotate(90)" class="opening opening--door"><line x1="-1.5" y1="0" x2="1.5" y2="0" stroke="#f7f5f0" stroke-width="0.78"/><line x1="-1.5" y1="0" x2="1.5" y2="0" stroke="#6d5549" stroke-width="0.12"/></g><g transform="translate(22 70) rotate(0)" class="opening opening--door"><line x1="-1.5" y1="0" x2="1.5" y2="0" stroke="#f7f5f0" stroke-width="0.78"/><line x1="-1.5" y1="0" x2="-1.5" y2="-3" stroke="#6d5549" stroke-width="0.12"/><path d="M 1.5 0 A 3 3 0 0 0 -1.5 -3" fill="none" stroke="#9b7a68" stroke-width="0.08" stroke-dasharray="0.28 0.18"/></g><g transform="translate(13 14) rotate(0)" class="opening opening--window"><line x1="-4" y1="0" x2="4" y2="0" stroke="#f7f5f0" stroke-width="0.78"/><line x1="-4" y1="-0.13" x2="4" y2="-0.13" stroke="#4e8390" stroke-width="0.12"/><line x1="-4" y1="0.13" x2="4" y2="0.13" stroke="#4e8390" stroke-width="0.12"/></g><g transform="translate(6 22) rotate(90)" class="opening opening--window"><line x1="-3" y1="0" x2="3" y2="0" stroke="#f7f5f0" stroke-width="0.78"/><line x1="-3" y1="-0.13" x2="3" y2="-0.13" stroke="#4e8390" stroke-width="0.12"/><line x1="-3" y1="0.13" x2="3" y2="0.13" stroke="#4e8390" stroke-width="0.12"/></g><g transform="translate(21.5 14) rotate(0)" class="opening opening--window"><line x1="-1" y1="0" x2="1" y2="0" stroke="#f7f5f0" stroke-width="0.78"/><line x1="-1" y1="-0.13" x2="1" y2="-0.13" stroke="#4e8390" stroke-width="0.12"/><line x1="-1" y1="0.13" x2="1" y2="0.13" stroke="#4e8390" stroke-width="0.12"/></g><g transform="translate(28.5 14) rotate(0)" class="opening opening--window"><line x1="-1" y1="0" x2="1" y2="0" stroke="#f7f5f0" stroke-width="0.78"/><line x1="-1" y1="-0.13" x2="1" y2="-0.13" stroke="#4e8390" stroke-width="0.12"/><line x1="-1" y1="0.13" x2="1" y2="0.13" stroke="#4e8390" stroke-width="0.12"/></g><g transform="translate(37 14) rotate(0)" class="opening opening--window"><line x1="-3" y1="0" x2="3" y2="0" stroke="#f7f5f0" stroke-width="0.78"/><line x1="-3" y1="-0.13" x2="3" y2="-0.13" stroke="#4e8390" stroke-width="0.12"/><line x1="-3" y1="0.13" x2="3" y2="0.13" stroke="#4e8390" stroke-width="0.12"/></g><g transform="translate(44 19.5) rotate(90)" class="opening opening--window"><line x1="-2" y1="0" x2="2" y2="0" stroke="#f7f5f0" stroke-width="0.78"/><line x1="-2" y1="-0.13" x2="2" y2="-0.13" stroke="#4e8390" stroke-width="0.12"/><line x1="-2" y1="0.13" x2="2" y2="0.13" stroke="#4e8390" stroke-width="0.12"/></g><g transform="translate(44 27.5) rotate(90)" class="opening opening--window"><line x1="-1.5" y1="0" x2="1.5" y2="0" stroke="#f7f5f0" stroke-width="0.78"/><line x1="-1.5" y1="-0.13" x2="1.5" y2="-0.13" stroke="#4e8390" stroke-width="0.12"/><line x1="-1.5" y1="0.13" x2="1.5" y2="0.13" stroke="#4e8390" stroke-width="0.12"/></g><g transform="translate(6 38) rotate(90)" class="opening opening--window"><line x1="-3" y1="0" x2="3" y2="0" stroke="#f7f5f0" stroke-width="0.78"/><line x1="-3" y1="-0.13" x2="3" y2="-0.13" stroke="#4e8390" stroke-width="0.12"/><line x1="-3" y1="0.13" x2="3" y2="0.13" stroke="#4e8390" stroke-width="0.12"/></g><g transform="translate(20 36) rotate(90)" class="opening opening--window"><line x1="-1.5" y1="0" x2="1.5" y2="0" stroke="#f7f5f0" stroke-width="0.78"/><line x1="-1.5" y1="-0.13" x2="1.5" y2="-0.13" stroke="#4e8390" stroke-width="0.12"/><line x1="-1.5" y1="0.13" x2="1.5" y2="0.13" stroke="#4e8390" stroke-width="0.12"/></g><g transform="translate(44 38) rotate(90)" class="opening opening--window"><line x1="-4" y1="0" x2="4" y2="0" stroke="#f7f5f0" stroke-width="0.78"/><line x1="-4" y1="-0.13" x2="4" y2="-0.13" stroke="#4e8390" stroke-width="0.12"/><line x1="-4" y1="0.13" x2="4" y2="0.13" stroke="#4e8390" stroke-width="0.12"/></g><g transform="translate(30 40) rotate(90)" class="opening opening--window"><line x1="-3" y1="0" x2="3" y2="0" stroke="#f7f5f0" stroke-width="0.78"/><line x1="-3" y1="-0.13" x2="3" y2="-0.13" stroke="#4e8390" stroke-width="0.12"/><line x1="-3" y1="0.13" x2="3" y2="0.13" stroke="#4e8390" stroke-width="0.12"/></g><g transform="translate(44 50) rotate(90)" class="opening opening--window"><line x1="-3" y1="0" x2="3" y2="0" stroke="#f7f5f0" stroke-width="0.78"/><line x1="-3" y1="-0.13" x2="3" y2="-0.13" stroke="#4e8390" stroke-width="0.12"/><line x1="-3" y1="0.13" x2="3" y2="0.13" stroke="#4e8390" stroke-width="0.12"/></g><g transform="translate(44 58) rotate(90)" class="opening opening--window"><line x1="-3" y1="0" x2="3" y2="0" stroke="#f7f5f0" stroke-width="0.78"/><line x1="-3" y1="-0.13" x2="3" y2="-0.13" stroke="#4e8390" stroke-width="0.12"/><line x1="-3" y1="0.13" x2="3" y2="0.13" stroke="#4e8390" stroke-width="0.12"/></g><g transform="translate(6 54) rotate(90)" class="opening opening--window"><line x1="-4" y1="0" x2="4" y2="0" stroke="#f7f5f0" stroke-width="0.78"/><line x1="-4" y1="-0.13" x2="4" y2="-0.13" stroke="#4e8390" stroke-width="0.12"/><line x1="-4" y1="0.13" x2="4" y2="0.13" stroke="#4e8390" stroke-width="0.12"/></g><g transform="translate(10 70) rotate(0)" class="opening opening--window"><line x1="-1.5" y1="0" x2="1.5" y2="0" stroke="#f7f5f0" stroke-width="0.78"/><line x1="-1.5" y1="-0.13" x2="1.5" y2="-0.13" stroke="#4e8390" stroke-width="0.12"/><line x1="-1.5" y1="0.13" x2="1.5" y2="0.13" stroke="#4e8390" stroke-width="0.12"/></g><g transform="translate(17 70) rotate(0)" class="opening opening--window"><line x1="-1.5" y1="0" x2="1.5" y2="0" stroke="#f7f5f0" stroke-width="0.78"/><line x1="-1.5" y1="-0.13" x2="1.5" y2="-0.13" stroke="#4e8390" stroke-width="0.12"/><line x1="-1.5" y1="0.13" x2="1.5" y2="0.13" stroke="#4e8390" stroke-width="0.12"/></g><g transform="translate(27 70) rotate(0)" class="opening opening--window"><line x1="-1.5" y1="0" x2="1.5" y2="0" stroke="#f7f5f0" stroke-width="0.78"/><line x1="-1.5" y1="-0.13" x2="1.5" y2="-0.13" stroke="#4e8390" stroke-width="0.12"/><line x1="-1.5" y1="0.13" x2="1.5" y2="0.13" stroke="#4e8390" stroke-width="0.12"/></g><g transform="translate(37 70) rotate(0)" class="opening opening--window"><line x1="-4" y1="0" x2="4" y2="0" stroke="#f7f5f0" stroke-width="0.78"/><line x1="-4" y1="-0.13" x2="4" y2="-0.13" stroke="#4e8390" stroke-width="0.12"/><line x1="-4" y1="0.13" x2="4" y2="0.13" stroke="#4e8390" stroke-width="0.12"/></g><g transform="translate(44 66) rotate(90)" class="opening opening--window"><line x1="-1.5" y1="0" x2="1.5" y2="0" stroke="#f7f5f0" stroke-width="0.78"/><line x1="-1.5" y1="-0.13" x2="1.5" y2="-0.13" stroke="#4e8390" stroke-width="0.12"/><line x1="-1.5" y1="0.13" x2="1.5" y2="0.13" stroke="#4e8390" stroke-width="0.12"/></g><g transform="translate(21.5 46) rotate(0)" class="opening opening--window"><line x1="-1" y1="0" x2="1" y2="0" stroke="#f7f5f0" stroke-width="0.78"/><line x1="-1" y1="-0.13" x2="1" y2="-0.13" stroke="#4e8390" stroke-width="0.12"/><line x1="-1" y1="0.13" x2="1" y2="0.13" stroke="#4e8390" stroke-width="0.12"/></g><g transform="translate(28.5 46) rotate(0)" class="opening opening--window"><line x1="-1" y1="0" x2="1" y2="0" stroke="#f7f5f0" stroke-width="0.78"/><line x1="-1" y1="-0.13" x2="1" y2="-0.13" stroke="#4e8390" stroke-width="0.12"/><line x1="-1" y1="0.13" x2="1" y2="0.13" stroke="#4e8390" stroke-width="0.12"/></g></g><g class="stair  is-lower-plan "><title>U-shaped half-turn stair · lower-floor UP plan · Ground Floor to First Floor</title><polygon class="stair-access-zone" points="37,34 40.5,34 40.5,30.5 37,30.5"/><polygon class="stair-footprint" points="40.5,45.5 33,45.5 33,34 40.5,34"/><polygon class="stair-landing" points="40.5,45.5 33,45.5 33,42 40.5,42"/><g class="stair-flight is-current"><polygon points="40.5,34 40.5,42 37,42 37,34"/><line x1="40.5" y1="35" x2="37" y2="35"/><line x1="40.5" y1="36" x2="37" y2="36"/><line x1="40.5" y1="37" x2="37" y2="37"/><line x1="40.5" y1="38" x2="37" y2="38"/><line x1="40.5" y1="39" x2="37" y2="39"/><line x1="40.5" y1="40" x2="37" y2="40"/><line x1="40.5" y1="41" x2="37" y2="41"/><g class="stair-cut-line"><line x1="40.5" y1="38.4" x2="37" y2="38.8"/><line x1="40.5" y1="39.12" x2="37" y2="39.52"/></g></g><g class="stair-flight is-beyond-cut"><polygon points="33,42 33,34 36.5,34 36.5,42"/><line x1="33" y1="41" x2="36.5" y2="41"/><line x1="33" y1="40" x2="36.5" y2="40"/><line x1="33" y1="39" x2="36.5" y2="39"/><line x1="33" y1="38" x2="36.5" y2="38"/><line x1="33" y1="37" x2="36.5" y2="37"/><line x1="33" y1="36" x2="36.5" y2="36"/><line x1="33" y1="35" x2="36.5" y2="35"/></g><polyline points="38.75,34 38.75,42 38.75,43.75 34.75,43.75 34.75,42 34.75,34" class="stair-arrow"/><path d="M 34.75 34 L 35.07 34.45 L 34.43 34.45 Z" fill="#45534b"/><text x="38.75" y="42.25" text-anchor="middle" class="stair-label">UP</text></g><g><text x="59" y="-5" font-size="1.1" font-weight="700">Sukoon House — Family Retreat</text><text x="59" y="-3.3" font-size="1" font-weight="700">Ground Floor · v157</text><text x="59" y="-1.7999999999999998" font-size="0.7">Concept plan · feet · centreline room areas</text><text x="59" y="0" font-size="0.9" font-weight="700">1. Guest Lounge</text><text x="59" y="1.0999999999999996" font-size="0.65">Living Room · 14 × 16 ft · 224 sq ft</text><text x="59" y="2.6999999999999993" font-size="0.9" font-weight="700">2. Entrance Hall</text><text x="59" y="3.8000000000000007" font-size="0.65">Custom · 10 × 16 ft · 160 sq ft</text><text x="59" y="5.4" font-size="0.9" font-weight="700">3. Courtyard Gallery</text><text x="59" y="6.5" font-size="0.65">Custom · 10 × 4 ft · 40 sq ft</text><text x="59" y="8.100000000000001" font-size="0.9" font-weight="700">4. Family Dining</text><text x="59" y="9.200000000000003" font-size="0.65">Dining Room · 14 × 16 ft · 224 sq ft</text><text x="59" y="10.8" font-size="0.9" font-weight="700">5. Stair Hall</text><text x="59" y="11.899999999999999" font-size="0.65">Custom · 14 × 16 ft · 224 sq ft</text><text x="59" y="13.5" font-size="0.9" font-weight="700">6. Open Sky Courtyard</text><text x="59" y="14.600000000000001" font-size="0.65">Courtyard · 10 × 12 ft · 120 sq ft</text><text x="59" y="16.200000000000003" font-size="0.9" font-weight="700">7. Family Kitchen</text><text x="59" y="17.300000000000004" font-size="0.65">Kitchen · 14 × 16 ft · 224 sq ft</text><text x="59" y="18.900000000000002" font-size="0.9" font-weight="700">8. Family Living</text><text x="59" y="20" font-size="0.65">Living Room · 24 × 16 ft · 384 sq ft</text><text x="59" y="21.6" font-size="0.9" font-weight="700">9. Rear Hall</text><text x="59" y="22.700000000000003" font-size="0.65">Custom · 4 × 8 ft · 32 sq ft</text><text x="59" y="24.3" font-size="0.9" font-weight="700">10. Guest Bathroom</text><text x="59" y="25.4" font-size="0.65">Bathroom · 6 × 8 ft · 48 sq ft</text><text x="59" y="27" font-size="0.9" font-weight="700">11. Garden Study</text><text x="59" y="28.1" font-size="0.65">Office · 14 × 8 ft · 112 sq ft</text><text x="59" y="29.700000000000003" font-size="0.9" font-weight="700">12. Parents Suite</text><text x="59" y="30.800000000000004" font-size="0.65">Bedroom · 14 × 11 ft · 154 sq ft</text><text x="59" y="32.400000000000006" font-size="0.9" font-weight="700">13. Parents Ensuite</text><text x="59" y="33.50000000000001" font-size="0.65">Bathroom · 14 × 5 ft · 70 sq ft</text><text x="59" y="35.1" font-size="0.9" font-weight="700">14. Pantry</text><text x="59" y="36.2" font-size="0.65">Storage · 8 × 8 ft · 64 sq ft</text><text x="59" y="37.800000000000004" font-size="0.9" font-weight="700">15. Laundry</text><text x="59" y="38.900000000000006" font-size="0.65">Storage · 6 × 8 ft · 48 sq ft</text></g></svg>